<svg width="72" height="20" viewBox="0 0 72 20" fill="none" xmlns="http://www.w3.org/2000/svg">
<g clip-path="url(#clip0_3_8)">
<rect width="72" height="20" rx="8" fill="#2CA9BC"/>
<path d="M10.5994 8.52239C12.0202 8.52239 13.1719 7.28616 13.1719 5.76119C13.1719 4.23623 12.0202 3 10.5994 3C9.17869 3 8.02695 4.23623 8.02695 5.76119C8.02695 7.28616 9.17869 8.52239 10.5994 8.52239Z" fill="#616161" fill-opacity="0.52"/>
<path d="M12.5839 8.57844C12.4188 8.53987 12.2504 8.52111 12.0817 8.52247H9.06819C8.40217 8.52247 7.76343 8.8173 7.29248 9.34209C6.82154 9.86689 6.55696 10.5787 6.55696 11.3208V11.8805C6.55696 11.8805 7.56145 12.9998 10.5749 12.9998C11.0788 13.0027 11.5822 12.9672 12.0817 12.8935C12.2517 12.8828 12.4202 12.8509 12.5839 12.7984" stroke="black" stroke-linecap="round" stroke-linejoin="round"/>
<path d="M13.6325 10.8358H15.6709M14.6517 9.71642V11.9552M10.5749 3C10.071 3 9.57837 3.16413 9.15935 3.47163C8.74034 3.77914 8.41376 4.2162 8.22091 4.72756C8.02806 5.23892 7.9776 5.80161 8.07591 6.34447C8.17423 6.88733 8.4169 7.38597 8.77324 7.77735C9.12958 8.16873 9.58359 8.43526 10.0778 8.54324C10.5721 8.65122 11.0844 8.5958 11.55 8.38399C12.0156 8.17218 12.4135 7.81349 12.6935 7.35327C12.9735 6.89306 13.1229 6.352 13.1229 5.79851C13.1229 5.0563 12.8545 4.34449 12.3766 3.81966C11.8988 3.29484 11.2507 3 10.5749 3Z" stroke="black" stroke-linecap="round" stroke-linejoin="round"/>
<path d="M18.9136 11H17.5954L19.6039 5.18182H21.1892L23.1948 11H21.8767L20.4193 6.51136H20.3738L18.9136 11ZM18.8312 8.71307H21.9448V9.6733H18.8312V8.71307ZM25.2772 11.071C24.9458 11.071 24.6456 10.9858 24.3767 10.8153C24.1096 10.643 23.8975 10.3902 23.7403 10.0568C23.585 9.72159 23.5073 9.31061 23.5073 8.82386C23.5073 8.32386 23.5878 7.90814 23.7488 7.5767C23.9098 7.24337 24.1238 6.99432 24.3909 6.82955C24.6598 6.66288 24.9543 6.57955 25.2744 6.57955C25.5187 6.57955 25.7223 6.62121 25.8852 6.70455C26.0499 6.78598 26.1825 6.88826 26.2829 7.01136C26.3852 7.13258 26.4628 7.25189 26.5159 7.36932H26.5528V5.18182H27.7602V11H26.567V10.3011H26.5159C26.459 10.4223 26.3785 10.5426 26.2744 10.6619C26.1721 10.7794 26.0386 10.8769 25.8738 10.9545C25.7109 11.0322 25.5121 11.071 25.2772 11.071ZM25.6607 10.108C25.8558 10.108 26.0206 10.0549 26.1551 9.94886C26.2914 9.84091 26.3956 9.69034 26.4676 9.49716C26.5414 9.30398 26.5784 9.07765 26.5784 8.81818C26.5784 8.55871 26.5424 8.33333 26.4704 8.14205C26.3984 7.95076 26.2943 7.80303 26.1579 7.69886C26.0215 7.5947 25.8558 7.54261 25.6607 7.54261C25.4619 7.54261 25.2943 7.59659 25.1579 7.70455C25.0215 7.8125 24.9183 7.96212 24.8482 8.15341C24.7782 8.3447 24.7431 8.56629 24.7431 8.81818C24.7431 9.07197 24.7782 9.2964 24.8482 9.49148C24.9202 9.68466 25.0234 9.83617 25.1579 9.94602C25.2943 10.054 25.4619 10.108 25.6607 10.108ZM30.3632 11.071C30.0317 11.071 29.7315 10.9858 29.4626 10.8153C29.1955 10.643 28.9834 10.3902 28.8262 10.0568C28.6709 9.72159 28.5933 9.31061 28.5933 8.82386C28.5933 8.32386 28.6738 7.90814 28.8347 7.5767C28.9957 7.24337 29.2097 6.99432 29.4768 6.82955C29.7457 6.66288 30.0402 6.57955 30.3603 6.57955C30.6046 6.57955 30.8082 6.62121 30.9711 6.70455C31.1359 6.78598 31.2685 6.88826 31.3688 7.01136C31.4711 7.13258 31.5488 7.25189 31.6018 7.36932H31.6387V5.18182H32.8461V11H31.6529V10.3011H31.6018C31.545 10.4223 31.4645 10.5426 31.3603 10.6619C31.258 10.7794 31.1245 10.8769 30.9597 10.9545C30.7969 11.0322 30.598 11.071 30.3632 11.071ZM30.7467 10.108C30.9418 10.108 31.1065 10.0549 31.241 9.94886C31.3774 9.84091 31.4815 9.69034 31.5535 9.49716C31.6274 9.30398 31.6643 9.07765 31.6643 8.81818C31.6643 8.55871 31.6283 8.33333 31.5563 8.14205C31.4844 7.95076 31.3802 7.80303 31.2438 7.69886C31.1075 7.5947 30.9418 7.54261 30.7467 7.54261C30.5478 7.54261 30.3802 7.59659 30.2438 7.70455C30.1075 7.8125 30.0043 7.96212 29.9342 8.15341C29.8641 8.3447 29.8291 8.56629 29.8291 8.81818C29.8291 9.07197 29.8641 9.2964 29.9342 9.49148C30.0061 9.68466 30.1094 9.83617 30.2438 9.94602C30.3802 10.054 30.5478 10.108 30.7467 10.108ZM38.8717 6.85511C38.849 6.62595 38.7514 6.44792 38.5791 6.32102C38.4067 6.19413 38.1728 6.13068 37.8774 6.13068C37.6766 6.13068 37.5071 6.15909 37.3688 6.21591C37.2306 6.27083 37.1245 6.34754 37.0507 6.44602C36.9787 6.54451 36.9427 6.65625 36.9427 6.78125C36.9389 6.88542 36.9607 6.97633 37.008 7.05398C37.0573 7.13163 37.1245 7.19886 37.2097 7.25568C37.295 7.31061 37.3935 7.3589 37.5052 7.40057C37.6169 7.44034 37.7363 7.47443 37.8632 7.50284L38.3859 7.62784C38.6397 7.68466 38.8726 7.76042 39.0847 7.85511C39.2969 7.94981 39.4806 8.06629 39.6359 8.20455C39.7912 8.3428 39.9115 8.50568 39.9967 8.69318C40.0838 8.88068 40.1283 9.09564 40.1302 9.33807C40.1283 9.69413 40.0374 10.0028 39.8575 10.2642C39.6794 10.5237 39.4219 10.7254 39.0847 10.8693C38.7495 11.0114 38.3452 11.0824 37.8717 11.0824C37.402 11.0824 36.9929 11.0104 36.6444 10.8665C36.2978 10.7225 36.027 10.5095 35.8319 10.2273C35.6387 9.94318 35.5374 9.59186 35.5279 9.1733H36.7183C36.7315 9.36837 36.7874 9.53125 36.8859 9.66193C36.9863 9.79072 37.1198 9.88826 37.2865 9.95455C37.455 10.0189 37.6454 10.0511 37.8575 10.0511C38.0658 10.0511 38.2467 10.0208 38.4001 9.96023C38.5554 9.89962 38.6757 9.81534 38.7609 9.70739C38.8461 9.59943 38.8887 9.47538 38.8887 9.33523C38.8887 9.20455 38.8499 9.0947 38.7722 9.00568C38.6965 8.91667 38.5847 8.84091 38.437 8.77841C38.2912 8.71591 38.1122 8.65909 37.9001 8.60795L37.2666 8.44886C36.776 8.32955 36.3887 8.14299 36.1046 7.8892C35.8205 7.63542 35.6794 7.29356 35.6813 6.86364C35.6794 6.51136 35.7732 6.2036 35.9626 5.94034C36.1539 5.67708 36.4162 5.47159 36.7495 5.32386C37.0829 5.17614 37.4616 5.10227 37.8859 5.10227C38.3177 5.10227 38.6946 5.17614 39.0166 5.32386C39.3404 5.47159 39.5923 5.67708 39.7722 5.94034C39.9522 6.2036 40.045 6.50852 40.0507 6.85511H38.8717ZM43.2559 6.63636V7.54545H40.6281V6.63636H43.2559ZM41.2247 5.59091H42.4349V9.65909C42.4349 9.77083 42.4519 9.85795 42.486 9.92045C42.5201 9.98106 42.5675 10.0237 42.6281 10.0483C42.6906 10.0729 42.7625 10.0852 42.844 10.0852C42.9008 10.0852 42.9576 10.0805 43.0144 10.071C43.0713 10.0597 43.1148 10.0511 43.1451 10.0455L43.3355 10.946C43.2749 10.965 43.1896 10.9867 43.0798 11.0114C42.9699 11.0379 42.8364 11.054 42.6792 11.0597C42.3875 11.071 42.1319 11.0322 41.9122 10.9432C41.6944 10.8542 41.5249 10.7159 41.4036 10.5284C41.2824 10.3409 41.2228 10.1042 41.2247 9.81818V5.59091ZM46.8426 9.14205V6.63636H48.0528V11H46.8909V10.2074H46.8454C46.7469 10.4631 46.5831 10.6686 46.3539 10.8239C46.1267 10.9792 45.8492 11.0568 45.5215 11.0568C45.2299 11.0568 44.9732 10.9905 44.7517 10.858C44.5301 10.7254 44.3568 10.5369 44.2318 10.2926C44.1087 10.0483 44.0462 9.75568 44.0443 9.41477V6.63636H45.2545V9.19886C45.2564 9.45644 45.3255 9.66004 45.4619 9.80966C45.5982 9.95928 45.781 10.0341 46.0102 10.0341C46.156 10.0341 46.2924 10.0009 46.4193 9.93466C46.5462 9.86648 46.6484 9.7661 46.7261 9.63352C46.8056 9.50095 46.8445 9.33712 46.8426 9.14205ZM50.6288 11.071C50.2973 11.071 49.9972 10.9858 49.7282 10.8153C49.4612 10.643 49.249 10.3902 49.0918 10.0568C48.9365 9.72159 48.8589 9.31061 48.8589 8.82386C48.8589 8.32386 48.9394 7.90814 49.1004 7.5767C49.2614 7.24337 49.4754 6.99432 49.7424 6.82955C50.0114 6.66288 50.3059 6.57955 50.6259 6.57955C50.8703 6.57955 51.0739 6.62121 51.2367 6.70455C51.4015 6.78598 51.5341 6.88826 51.6345 7.01136C51.7367 7.13258 51.8144 7.25189 51.8674 7.36932H51.9043V5.18182H53.1117V11H51.9186V10.3011H51.8674C51.8106 10.4223 51.7301 10.5426 51.6259 10.6619C51.5237 10.7794 51.3901 10.8769 51.2254 10.9545C51.0625 11.0322 50.8636 11.071 50.6288 11.071ZM51.0123 10.108C51.2074 10.108 51.3722 10.0549 51.5066 9.94886C51.643 9.84091 51.7472 9.69034 51.8191 9.49716C51.893 9.30398 51.9299 9.07765 51.9299 8.81818C51.9299 8.55871 51.8939 8.33333 51.822 8.14205C51.75 7.95076 51.6458 7.80303 51.5095 7.69886C51.3731 7.5947 51.2074 7.54261 51.0123 7.54261C50.8134 7.54261 50.6458 7.59659 50.5095 7.70455C50.3731 7.8125 50.2699 7.96212 50.1998 8.15341C50.1297 8.3447 50.0947 8.56629 50.0947 8.81818C50.0947 9.07197 50.1297 9.2964 50.1998 9.49148C50.2718 9.68466 50.375 9.83617 50.5095 9.94602C50.6458 10.054 50.8134 10.108 51.0123 10.108ZM56.0954 11.0852C55.6465 11.0852 55.2602 10.9943 54.9363 10.8125C54.6143 10.6288 54.3662 10.3693 54.192 10.0341C54.0177 9.69697 53.9306 9.2983 53.9306 8.83807C53.9306 8.3892 54.0177 7.99527 54.192 7.65625C54.3662 7.31723 54.6115 7.05303 54.9278 6.86364C55.246 6.67424 55.6191 6.57955 56.0471 6.57955C56.335 6.57955 56.603 6.62595 56.8511 6.71875C57.1011 6.80966 57.3189 6.94697 57.5045 7.13068C57.692 7.31439 57.8378 7.54545 57.942 7.82386C58.0462 8.10038 58.0982 8.42424 58.0982 8.79545V9.12784H54.4136V8.37784H56.959C56.959 8.2036 56.9212 8.04924 56.8454 7.91477C56.7696 7.7803 56.6645 7.67519 56.5301 7.59943C56.3975 7.52178 56.2431 7.48295 56.067 7.48295C55.8833 7.48295 55.7204 7.52557 55.5784 7.6108C55.4382 7.69413 55.3284 7.80682 55.2488 7.94886C55.1693 8.08902 55.1285 8.24527 55.1267 8.41761V9.13068C55.1267 9.34659 55.1664 9.53314 55.246 9.69034C55.3274 9.84754 55.442 9.96875 55.5897 10.054C55.7374 10.1392 55.9126 10.1818 56.1153 10.1818C56.2498 10.1818 56.3729 10.1629 56.4846 10.125C56.5963 10.0871 56.692 10.0303 56.7715 9.95455C56.8511 9.87879 56.9117 9.78598 56.9534 9.67614L58.0727 9.75C58.0159 10.0189 57.8994 10.2538 57.7232 10.4545C57.549 10.6534 57.3236 10.8087 57.0471 10.9205C56.7725 11.0303 56.4552 11.0852 56.0954 11.0852ZM60.0982 8.47727V11H58.888V6.63636H60.0414V7.40625H60.0926C60.1892 7.15246 60.3511 6.9517 60.5784 6.80398C60.8056 6.65436 61.0812 6.57955 61.4051 6.57955C61.7081 6.57955 61.9723 6.64583 62.1977 6.77841C62.4231 6.91098 62.5982 7.10038 62.7232 7.34659C62.8482 7.59091 62.9107 7.88258 62.9107 8.22159V11H61.7005V8.4375C61.7024 8.17045 61.6342 7.96212 61.496 7.8125C61.3577 7.66098 61.1674 7.58523 60.9249 7.58523C60.7621 7.58523 60.6181 7.62027 60.4931 7.69034C60.37 7.76042 60.2734 7.86269 60.2034 7.99716C60.1352 8.12973 60.1001 8.28977 60.0982 8.47727ZM66.1856 6.63636V7.54545H63.5578V6.63636H66.1856ZM64.1543 5.59091H65.3646V9.65909C65.3646 9.77083 65.3816 9.85795 65.4157 9.92045C65.4498 9.98106 65.4972 10.0237 65.5578 10.0483C65.6203 10.0729 65.6922 10.0852 65.7737 10.0852C65.8305 10.0852 65.8873 10.0805 65.9441 10.071C66.0009 10.0597 66.0445 10.0511 66.0748 10.0455L66.2651 10.946C66.2045 10.965 66.1193 10.9867 66.0095 11.0114C65.8996 11.0379 65.7661 11.054 65.6089 11.0597C65.3172 11.071 65.0615 11.0322 64.8418 10.9432C64.624 10.8542 64.4545 10.7159 64.3333 10.5284C64.2121 10.3409 64.1525 10.1042 64.1543 9.81818V5.59091Z" fill="black"/>
</g>
<defs>
<clipPath id="clip0_3_8">
<rect width="72" height="20" rx="8" fill="white"/>
</clipPath>
</defs>
</svg>
